<svg xmlns="http://www.w3.org/2000/svg" width="16.95mm" height="16.95mm" viewBox="0 0 48.04 48.04"><defs><style>.cls-1{fill:#fff;}</style></defs><g id="Layer_2" data-name="Layer 2"><g id="Layer_1-2" data-name="Layer 1"><rect width="48.04" height="48.04"/><path class="cls-1" d="M29.45,7.71H12.89a1.81,1.81,0,1,0,0,3.62h6.3a1.78,1.78,0,0,1,1.15.52A1.82,1.82,0,0,1,19.06,15H10.53a1.81,1.81,0,1,0,0,3.62H27.65a1.84,1.84,0,0,1,1.27.53,1.81,1.81,0,0,1-1.28,3.09H13.24a1.81,1.81,0,0,0,0,3.61h9.34a1.75,1.75,0,0,1,1.26.53,1.8,1.8,0,0,1-1.28,3.09H4.09a1.82,1.82,0,0,0,0,3.63H19a1.76,1.76,0,0,1,1.27.53,1.81,1.81,0,0,1-1.11,3.08h-7.3a1.82,1.82,0,1,0,0,3.63H29.45a16.31,16.31,0,0,0,0-32.62Z"/></g></g></svg>