<svg xmlns="http://www.w3.org/2000/svg" width="62.3mm" height="11.51mm" viewBox="0 0 176.59 32.62"><defs><style>.cls-1{fill:#fff;}</style></defs><g id="Layer_2" data-name="Layer 2"><g id="Layer_1-2" data-name="Layer 1"><path class="cls-1" d="M48.31,29.45c-1.26,2.14-3.92,3.08-6.35,3.08-5.56,0-8.74-4.06-8.74-9.06V9h6.22V22.21c0,2.57,1.3,4.62,4.2,4.62S48,25,48,22.3V9h6.21V27.76a35.78,35.78,0,0,0,.24,4.16H48.49A16.31,16.31,0,0,1,48.31,29.45Z"/><path class="cls-1" d="M66.24,20.39,58.07,9h7.38c.79,1.26,3.78,5.55,4.57,6.81L74.55,9h7l-8,11.25,8.31,11.72H74.6l-4.81-7c-.84,1.26-3.92,5.79-4.72,7.05h-7Z"/><path class="cls-1" d="M89.26,20.43c0,4.16,2.71,6.49,5.89,6.49a5.25,5.25,0,0,0,5.27-3.87l5.47,1.82a10.67,10.67,0,0,1-10.74,7.75,11.89,11.89,0,0,1-12.1-12.19A11.76,11.76,0,0,1,95,8.25c6.26,0,9.81,3.87,10.79,7.75l-5.56,1.86A5,5,0,0,0,95.1,14C91.92,14,89.26,16.28,89.26,20.43Z"/><path class="cls-1" d="M132.6,20.43a12.05,12.05,0,1,1-24.1,0,12.05,12.05,0,1,1,24.1,0Zm-6.21,0c0-4.34-2.81-6.53-5.84-6.53s-5.84,2.19-5.84,6.53,2.8,6.54,5.84,6.54S126.39,24.78,126.39,20.43Z"/><path class="cls-1" d="M151.51,15.11a9.4,9.4,0,0,0-1.87-.19c-3.17,0-5.93,1.54-5.93,6.49V31.92H137.5V9h6v3.4c1.41-3,4.58-3.59,6.54-3.59.52,0,1,.05,1.45.09Z"/><path class="cls-1" d="M176.26,25.34c-1.17,4-4.81,7.28-10.46,7.28-6.31,0-11.86-4.53-11.86-12.28,0-7.33,5.41-12.09,11.3-12.09,7.1,0,11.35,4.52,11.35,11.9,0,.89-.1,1.82-.1,1.92H160.06a5.59,5.59,0,0,0,5.79,5.23,5.08,5.08,0,0,0,5.23-3.5Zm-5.79-7.52c-.09-2.29-1.59-4.53-5.14-4.53a5,5,0,0,0-5.13,4.53Z"/><path class="cls-1" d="M0,32.62V0H11.82C21.62,0,28.2,6.26,28.2,16.33S21.62,32.62,11.78,32.62Zm11.5-6.85c5,0,9.11-2.9,9.11-9.44S16.52,6.86,11.5,6.86H7.27V25.77Z"/></g></g></svg>